<?xml version="1.0" encoding="utf-8"?>
<!-- Generator: Adobe Illustrator 24.1.3, SVG Export Plug-In . SVG Version: 6.00 Build 0)  -->
<svg version="1.1" id="Calque_1" xmlns="http://www.w3.org/2000/svg" xmlns:xlink="http://www.w3.org/1999/xlink" x="0px" y="0px"
	 viewBox="0 0 40 40" style="enable-background:new 0 0 40 40;" xml:space="preserve">
<style type="text/css">
	.st0{fill:#515151;}
</style>
<g>
	<path class="st0" d="M30,0H10C4.5,0,0,4.5,0,10v20c0,5.5,4.5,10,10,10h20c5.5,0,10-4.5,10-10V10C40,4.5,35.5,0,30,0z M38.4,30
		c0,4.6-3.8,8.4-8.4,8.4H10c-4.6,0-8.4-3.8-8.4-8.4V10c0-4.6,3.8-8.4,8.4-8.4h20c4.6,0,8.4,3.8,8.4,8.4V30z"/>
	<path class="st0" d="M26.3,7.7h-3.8c-3.3,0-6,3.1-6,6.7v1.2h-2.8c-0.4,0-0.7,0.3-0.7,0.7V21c0,0.4,0.3,0.7,0.7,0.7h2.8v10
		c0,0.4,0.3,0.7,0.7,0.7h4.4c0.4,0,0.7-0.3,0.7-0.7v-10h4.1c0.4,0,0.7-0.3,0.7-0.7v-4.7c0-0.4-0.3-0.7-0.7-0.7h-4.1v-1.2
		c0-0.4,0.2-0.6,0.2-0.6h3.8c0.4,0,0.7-0.3,0.7-0.7V8.4C27,8,26.7,7.7,26.3,7.7z M20.9,14.4v1.9c0,0.4,0.3,0.7,0.7,0.7h4.1v3.4h-4.1
		c-0.4,0-0.7,0.3-0.7,0.7v10h-3.1V21c0-0.4-0.3-0.7-0.7-0.7h-2.8V17h2.8c0.4,0,0.7-0.3,0.7-0.7v-1.8c0-2.9,2.1-5.4,4.7-5.4h3.2v3.4
		h-3.2C21.7,12.4,20.9,13.2,20.9,14.4z"/>
</g>
</svg>
