<?xml version="1.0" encoding="utf-8"?>
<!-- Generator: Adobe Illustrator 24.1.3, SVG Export Plug-In . SVG Version: 6.00 Build 0)  -->
<svg version="1.1" id="Calque_1" xmlns="http://www.w3.org/2000/svg" xmlns:xlink="http://www.w3.org/1999/xlink" x="0px" y="0px"
	 viewBox="0 0 40 40" style="enable-background:new 0 0 40 40;" xml:space="preserve">
<style type="text/css">
	.st0{fill:#515151;}
</style>
<g>
	<path class="st0" d="M30,0H10C4.5,0,0,4.5,0,10v20c0,5.5,4.5,10,10,10h20c5.5,0,10-4.5,10-10V10C40,4.5,35.5,0,30,0z M38.4,30
		c0,4.6-3.8,8.4-8.4,8.4H10c-4.6,0-8.4-3.8-8.4-8.4V10c0-4.6,3.8-8.4,8.4-8.4h20c4.6,0,8.4,3.8,8.4,8.4V30z"/>
	<path class="st0" d="M20,10.4c-5.3,0-9.6,4.3-9.6,9.6s4.3,9.6,9.6,9.6c5.3,0,9.6-4.3,9.6-9.6S25.3,10.4,20,10.4z M20,28
		c-4.4,0-8-3.6-8-8s3.6-8,8-8c4.4,0,8,3.6,8,8S24.4,28,20,28z"/>
	<path class="st0" d="M31.2,4.8C29.4,4.8,28,6.2,28,8s1.4,3.2,3.2,3.2s3.2-1.4,3.2-3.2S33,4.8,31.2,4.8z M31.2,9.6
		c-0.9,0-1.6-0.7-1.6-1.6s0.7-1.6,1.6-1.6s1.6,0.7,1.6,1.6S32.1,9.6,31.2,9.6z"/>
</g>
</svg>
