<?xml version="1.0" encoding="utf-8"?>
<!-- Generator: Adobe Illustrator 24.1.3, SVG Export Plug-In . SVG Version: 6.00 Build 0)  -->
<svg version="1.1" id="Calque_1" xmlns="http://www.w3.org/2000/svg" xmlns:xlink="http://www.w3.org/1999/xlink" x="0px" y="0px"
	 viewBox="0 0 32 32" style="enable-background:new 0 0 32 32;" xml:space="preserve">
<style type="text/css">
	.st0{fill:#515151;}
</style>
<g>
	<path class="st0" d="M30.7,28.9l-8.3-8.2c1.8-2.2,2.7-4.9,2.7-7.7c0-6.7-5.5-12.2-12.2-12.2C6.2,0.8,0.8,6.2,0.8,13
		c0,6.7,5.5,12.2,12.2,12.2c2.8,0,5.4-0.9,7.5-2.6l8.3,8.3c0.3,0.3,0.6,0.4,1,0.4c0.4,0,0.7-0.1,1-0.4
		C31.3,30.3,31.3,29.4,30.7,28.9z M13,2.4c2.8,0,5.5,1.1,7.5,3.1c2,2,3.1,4.7,3.1,7.5c0,5.8-4.7,10.6-10.6,10.6S2.4,18.8,2.4,13
		S7.1,2.4,13,2.4z"/>
	<path class="st0" d="M5.3,13.8c0.5,0,0.8-0.4,0.8-0.8c0-3.8,3.1-6.8,6.8-6.8c0.5,0,0.8-0.4,0.8-0.8S13.4,4.5,13,4.5
		c-4.7,0-8.5,3.8-8.5,8.5C4.5,13.4,4.9,13.8,5.3,13.8z"/>
</g>
</svg>
