<?xml version="1.0" encoding="utf-8"?>
<!-- Generator: Adobe Illustrator 24.1.3, SVG Export Plug-In . SVG Version: 6.00 Build 0)  -->
<svg version="1.1" id="Calque_1" xmlns="http://www.w3.org/2000/svg" xmlns:xlink="http://www.w3.org/1999/xlink" x="0px" y="0px"
	 viewBox="0 0 24 32" style="enable-background:new 0 0 24 32;" xml:space="preserve">
<style type="text/css">
	.st0{fill:#515151;}
</style>
<g>
	<path class="st0" d="M12.3,0.8C5.9,0.8,0.8,5.9,0.8,12.3c0,2.7,0.9,5.3,2.6,7.3l7.7,11c0.3,0.4,0.8,0.7,1.3,0.7
		c0.5,0,1-0.3,1.3-0.7l7.7-11.1c0.3-0.4,0.6-0.8,0.9-1.3c0.1-0.1,0.1-0.2,0.1-0.3c1-1.7,1.5-3.6,1.5-5.6C23.9,5.9,18.7,0.8,12.3,0.8
		z M12.3,29.4L4.8,18.5l0-0.1c-1.4-1.7-2.2-3.9-2.2-6.2c0-5.4,4.4-9.8,9.8-9.8s9.8,4.4,9.8,9.8c0,1.7-0.4,3.3-1.3,4.8
		c0,0,0,0.1,0,0.1l0,0c-0.3,0.4-0.5,0.8-0.8,1.2L12.3,29.4z"/>
	<path class="st0" d="M12.1,5.7c-3.6,0-6.6,3-6.6,6.6s3,6.6,6.6,6.6c3.6,0,6.6-3,6.6-6.6S15.8,5.7,12.1,5.7z M17,12.3
		c0,2.7-2.2,4.8-4.9,4.8c-2.7,0-4.9-2.2-4.9-4.8s2.2-4.8,4.9-4.8C14.8,7.4,17,9.6,17,12.3z"/>
</g>
</svg>
