<?xml version="1.0" encoding="utf-8"?>
<!-- Generator: Adobe Illustrator 24.1.3, SVG Export Plug-In . SVG Version: 6.00 Build 0)  -->
<svg version="1.1" id="Calque_1" xmlns="http://www.w3.org/2000/svg" xmlns:xlink="http://www.w3.org/1999/xlink" x="0px" y="0px"
	 viewBox="0 0 25 30" style="enable-background:new 0 0 25 30;" xml:space="preserve">
<style type="text/css">
	.st0{fill:#515151;}
</style>
<g>
	<path class="st0" d="M12.5,14.6c4,0,7.3-3.3,7.3-7.3c0-4-3.3-7.3-7.3-7.3S5.2,3.3,5.2,7.3C5.2,11.3,8.5,14.6,12.5,14.6z M12.5,1.8
		c3,0,5.5,2.4,5.5,5.4c0,3-2.5,5.4-5.5,5.4c-3,0-5.5-2.4-5.5-5.4C7,4.3,9.5,1.8,12.5,1.8z"/>
	<path class="st0" d="M12.5,16.7C5.6,16.7,0,22.2,0,29.1C0,29.6,0.4,30,0.9,30h23.1c0.5,0,0.9-0.4,0.9-0.9
		C25,22.2,19.4,16.7,12.5,16.7z M1.9,28.2c0.5-5.4,5.1-9.7,10.6-9.7c5.6,0,10.1,4.3,10.6,9.7H1.9z"/>
</g>
</svg>
