<?xml version="1.0" encoding="utf-8"?>
<!-- Generator: Adobe Illustrator 24.1.3, SVG Export Plug-In . SVG Version: 6.00 Build 0)  -->
<svg version="1.1" id="Calque_1" xmlns="http://www.w3.org/2000/svg" xmlns:xlink="http://www.w3.org/1999/xlink" x="0px" y="0px"
	 viewBox="0 0 30 30" style="enable-background:new 0 0 30 30;" xml:space="preserve">
<style type="text/css">
	.st0{fill-rule:evenodd;clip-rule:evenodd;fill:#515151;}
</style>
<g>
	<path class="st0" d="M18.6,4.3c0-0.5,0-1,0-1.4c-0.5,0-1,0-1.4,0c0-0.5,0-1,0-1.4c0.5,0,1,0,1.4,0c0-0.5,0-1,0-1.4
		c-1,0-1.9,0-2.9,0c0,0.5,0,1,0,1.4c-0.5,0-1,0-1.4,0c0-0.5,0-1,0-1.4c-0.5,0-1,0-1.4,0c0,1,0,1.9,0,2.9c-0.5,0-1,0-1.4,0
		c0,0.5,0,1,0,1.4c0.5,0,1,0,1.4,0c0,0.5,0,1,0,1.4c0.5,0,1,0,1.4,0c0-1,0-1.9,0-2.9c0.5,0,1,0,1.4,0c0,1,0,1.9,0,2.9
		c0.5,0,1,0,1.4,0c0-0.5,0-1,0-1.4C17.6,4.3,18.1,4.3,18.6,4.3z"/>
	<path class="st0" d="M10,0C6.7,0,3.3,0,0,0c0,3.3,0,6.7,0,10c3.3,0,6.7,0,10,0C10,6.7,10,3.3,10,0z M8.6,8.6c-2.4,0-4.8,0-7.1,0
		c0-2.4,0-4.8,0-7.1c2.4,0,4.8,0,7.1,0C8.6,3.8,8.6,6.2,8.6,8.6z"/>
	<path class="st0" d="M20,0c0,3.3,0,6.7,0,10c3.3,0,6.7,0,10,0c0-3.3,0-6.7,0-10C26.7,0,23.3,0,20,0z M28.6,8.6c-2.4,0-4.8,0-7.1,0
		c0-2.4,0-4.8,0-7.1c2.4,0,4.8,0,7.1,0C28.6,3.8,28.6,6.2,28.6,8.6z"/>
	<circle class="st0" cx="5" cy="5" r="3"/>
	<path class="st0" d="M27.1,2.9c-1.4,0-2.9,0-4.3,0c0,1.4,0,2.9,0,4.3c1.4,0,2.9,0,4.3,0C27.1,5.7,27.1,4.3,27.1,2.9z"/>
	<path class="st0" d="M14.3,7.1c0.5,0,1,0,1.4,0c0-0.5,0-1,0-1.4c-0.5,0-1,0-1.4,0C14.3,6.2,14.3,6.7,14.3,7.1z"/>
	<path class="st0" d="M8.6,17.1c0-0.5,0-1,0-1.4c-0.5,0-1,0-1.4,0c0-1,0-1.9,0-2.9c1.9,0,3.8,0,5.7,0c0,0.5,0,1,0,1.4
		c-1.4,0-2.9,0-4.3,0c0,0.5,0,1,0,1.4c1.4,0,2.9,0,4.3,0c0,0.5,0,1,0,1.4c1,0,1.9,0,2.9,0c0-1,0-1.9,0-2.9c-0.5,0-1,0-1.4,0
		c0-0.5,0-1,0-1.4c1,0,1.9,0,2.9,0c0-0.5,0-1,0-1.4c0.5,0,1,0,1.4,0c0-1.9,0-3.8,0-5.7c-0.5,0-1,0-1.4,0c0,1.4,0,2.9,0,4.3
		c-0.5,0-1,0-1.4,0c0,0.5,0,1,0,1.4c-0.5,0-1,0-1.4,0c0-0.5,0-1,0-1.4c-0.5,0-1,0-1.4,0c0-0.5,0-1,0-1.4c-0.5,0-1,0-1.4,0
		c0,1,0,1.9,0,2.9c-1.9,0-3.8,0-5.7,0c0,0.5,0,1,0,1.4c-0.5,0-1,0-1.4,0c0-0.5,0-1,0-1.4c-1.4,0-2.9,0-4.3,0c0,1.4,0,2.9,0,4.3
		c1,0,1.9,0,2.9,0c0-0.5,0-1,0-1.4c-0.5,0-1,0-1.4,0c0-0.5,0-1,0-1.4c0.5,0,1,0,1.4,0c0,0.5,0,1,0,1.4c1,0,1.9,0,2.9,0
		c0,0.5,0,1,0,1.4c-0.5,0-1,0-1.4,0c0,1,0,1.9,0,2.9c0.5,0,1,0,1.4,0c0-0.5,0-1,0-1.4c0.5,0,1,0,1.4,0c0,0.5,0,1,0,1.4
		c1.4,0,2.9,0,4.3,0c0-0.5,0-1,0-1.4C10.5,17.1,9.5,17.1,8.6,17.1z"/>
	<path class="st0" d="M15.7,8.6c-0.5,0-1,0-1.4,0c0,0.5,0,1,0,1.4c0.5,0,1,0,1.4,0C15.7,9.5,15.7,9,15.7,8.6z"/>
	<path class="st0" d="M20,12.9c0,0.5,0,1,0,1.4c1,0,1.9,0,2.9,0c0-0.5,0-1,0-1.4c-0.5,0-1,0-1.4,0c0-0.5,0-1,0-1.4c-1,0-1.9,0-2.9,0
		c0,0.5,0,1,0,1.4C19,12.9,19.5,12.9,20,12.9z"/>
	<path class="st0" d="M25.7,11.4c0,0.5,0,1,0,1.4c0.5,0,1,0,1.4,0c0-0.5,0-1,0-1.4C26.7,11.4,26.2,11.4,25.7,11.4z"/>
	<path class="st0" d="M25.7,15.7c0.5,0,1,0,1.4,0c0,0.5,0,1,0,1.4c0.5,0,1,0,1.4,0c0-0.5,0-1,0-1.4c0.5,0,1,0,1.4,0c0-1,0-1.9,0-2.9
		c-0.5,0-1,0-1.4,0c0,0.5,0,1,0,1.4c-1,0-1.9,0-2.9,0C25.7,14.8,25.7,15.2,25.7,15.7z"/>
	<path class="st0" d="M17.1,15.7c0.5,0,1,0,1.4,0c0-0.5,0-1,0-1.4c-0.5,0-1,0-1.4,0C17.1,14.8,17.1,15.2,17.1,15.7z"/>
	<ellipse class="st0" cx="23.6" cy="15.7" rx="1" ry="2"/>
	<path class="st0" d="M1.4,17.1c-0.5,0-1,0-1.4,0c0,0.5,0,1,0,1.4c0.5,0,1,0,1.4,0C1.4,18.1,1.4,17.6,1.4,17.1z"/>
	<path class="st0" d="M24.3,18.6c0.5,0,1,0,1.4,0c0-0.5,0-1,0-1.4c-0.5,0-1,0-1.4,0C24.3,17.6,24.3,18.1,24.3,18.6z"/>
	<path class="st0" d="M14.3,22.9c0-0.5,0-1,0-1.4c-0.5,0-1,0-1.4,0c0-1,0-1.9,0-2.9c-0.5,0-1,0-1.4,0c0,1.9,0,3.8,0,5.7
		c0.5,0,1,0,1.4,0c0-0.5,0-1,0-1.4C13.3,22.9,13.8,22.9,14.3,22.9z"/>
	<path class="st0" d="M28.6,24.3c0.5,0,1,0,1.4,0c0-1.9,0-3.8,0-5.7c-1,0-1.9,0-2.9,0c0,0.5,0,1,0,1.4c-0.5,0-1,0-1.4,0
		c0,0.5,0,1,0,1.4c1,0,1.9,0,2.9,0c0,0.5,0,1,0,1.4c-0.5,0-1,0-1.4,0c0,1,0,1.9,0,2.9c0.5,0,1,0,1.4,0
		C28.6,25.2,28.6,24.8,28.6,24.3z"/>
	<path class="st0" d="M0,30c3.3,0,6.7,0,10,0c0-3.3,0-6.7,0-10c-3.3,0-6.7,0-10,0C0,23.3,0,26.7,0,30z M1.4,21.4c2.4,0,4.8,0,7.1,0
		c0,2.4,0,4.8,0,7.1c-2.4,0-4.8,0-7.1,0C1.4,26.2,1.4,23.8,1.4,21.4z"/>
	<path class="st0" d="M2.9,27.1c1.4,0,2.9,0,4.3,0c0-1.4,0-2.9,0-4.3c-1.4,0-2.9,0-4.3,0C2.9,24.3,2.9,25.7,2.9,27.1z"/>
	<path class="st0" d="M17.1,27.1c0.5,0,1,0,1.4,0c0-0.5,0-1,0-1.4c-0.5,0-1,0-1.4,0C17.1,26.2,17.1,26.7,17.1,27.1z"/>
	<path class="st0" d="M28.6,27.1c-0.5,0-1,0-1.4,0c0-0.5,0-1,0-1.4c-0.5,0-1,0-1.4,0c0-1,0-1.9,0-2.9c-0.5,0-1,0-1.4,0
		c0,0.5,0,1,0,1.4c-0.5,0-1,0-1.4,0c0-0.5,0-1,0-1.4c0.5,0,1,0,1.4,0c0-1.4,0-2.9,0-4.3c-0.5,0-1,0-1.4,0c0-0.5,0-1,0-1.4
		c-0.5,0-1,0-1.4,0c0-0.5,0-1,0-1.4c-0.5,0-1,0-1.4,0c0,1,0,1.9,0,2.9c0.5,0,1,0,1.4,0c0,0.5,0,1,0,1.4c0.5,0,1,0,1.4,0
		c0,1,0,1.9,0,2.9c-1,0-1.9,0-2.9,0c0-0.5,0-1,0-1.4c0.5,0,1,0,1.4,0c0-0.5,0-1,0-1.4c-0.5,0-1,0-1.4,0c0-0.5,0-1,0-1.4
		c-0.5,0-1,0-1.4,0c0-0.5,0-1,0-1.4c-0.5,0-1,0-1.4,0c0,0.5,0,1,0,1.4c-0.5,0-1,0-1.4,0c0,0.5,0,1,0,1.4c-0.5,0-1,0-1.4,0
		c0,0.5,0,1,0,1.4c0.5,0,1,0,1.4,0c0,0.5,0,1,0,1.4c-0.5,0-1,0-1.4,0c0,0.5,0,1,0,1.4c-0.5,0-1,0-1.4,0c0,0.5,0,1,0,1.4
		c0.5,0,1,0,1.4,0c0,0.5,0,1,0,1.4c-0.5,0-1,0-1.4,0c0-0.5,0-1,0-1.4c-0.5,0-1,0-1.4,0c0,1.4,0,2.9,0,4.3c0.5,0,1,0,1.4,0
		c0-0.5,0-1,0-1.4c1,0,1.9,0,2.9,0c0-1.4,0-2.9,0-4.3c0.5,0,1,0,1.4,0c0-0.5,0-1,0-1.4c0.5,0,1,0,1.4,0c0,0.5,0,1,0,1.4
		c0.5,0,1,0,1.4,0c0,0.5,0,1,0,1.4c1,0,1.9,0,2.9,0c0,0.5,0,1,0,1.4c-1,0-1.9,0-2.9,0c0,1,0,1.9,0,2.9c0.5,0,1,0,1.4,0
		c0-0.5,0-1,0-1.4c1,0,1.9,0,2.9,0c0,0.5,0,1,0,1.4c0.5,0,1,0,1.4,0c0-1,0-1.9,0-2.9c0.5,0,1,0,1.4,0c0,1,0,1.9,0,2.9
		c1,0,1.9,0,2.9,0c0-0.5,0-1,0-1.4c-0.5,0-1,0-1.4,0C28.6,28.1,28.6,27.6,28.6,27.1c0.5,0,1,0,1.4,0c0-0.5,0-1,0-1.4
		c-0.5,0-1,0-1.4,0C28.6,26.2,28.6,26.7,28.6,27.1z M17.1,21.4c0-1,0-1.9,0-2.9c0.5,0,1,0,1.4,0c0,1,0,1.9,0,2.9
		C18.1,21.4,17.6,21.4,17.1,21.4z M24.3,25.7c0.5,0,1,0,1.4,0c0,0.5,0,1,0,1.4c-0.5,0-1,0-1.4,0C24.3,26.7,24.3,26.2,24.3,25.7z"/>
</g>
</svg>
