<?xml version="1.0" encoding="utf-8"?>
<!-- Generator: Adobe Illustrator 24.1.3, SVG Export Plug-In . SVG Version: 6.00 Build 0)  -->
<svg version="1.1" id="Calque_1" xmlns="http://www.w3.org/2000/svg" xmlns:xlink="http://www.w3.org/1999/xlink" x="0px" y="0px"
	 viewBox="0 0 32 30" style="enable-background:new 0 0 32 30;" xml:space="preserve">
<style type="text/css">
	.st0{fill:#515151;}
</style>
<path class="st0" d="M31.8,11.4c-0.1-0.2-0.3-0.4-0.5-0.4L21.1,9.5l-4.5-9.1C16.5,0.1,16.2,0,16,0c-0.3,0-0.5,0.1-0.6,0.4l-4.5,9.1
	L0.8,11c-0.2,0-0.5,0.2-0.5,0.4c-0.1,0.2,0,0.5,0.2,0.7l7.3,7.1L6,29.2c0,0.2,0.1,0.5,0.3,0.6c0.2,0.1,0.5,0.2,0.7,0l9.1-4.7
	l9.1,4.7c0.1,0,0.2,0.1,0.3,0.1c0.1,0,0.3,0,0.4-0.1c0.2-0.1,0.3-0.4,0.3-0.6l-1.7-10.1l7.3-7.1C31.8,11.9,31.8,11.6,31.8,11.4z
	 M23.1,18.5c-0.2,0.1-0.2,0.4-0.2,0.6l1.6,9.1l-8.2-4.3c-0.1,0-0.2-0.1-0.3-0.1c-0.1,0-0.2,0-0.3,0.1l-8.2,4.3l1.6-9.1
	c0-0.2,0-0.4-0.2-0.6l-6.6-6.4l9.2-1.3c0.2,0,0.4-0.2,0.5-0.4L16,2.1l4.1,8.3c0.1,0.2,0.3,0.3,0.5,0.4l9.2,1.3L23.1,18.5z"/>
</svg>
