<?xml version="1.0" encoding="utf-8"?>
<!-- Generator: Adobe Illustrator 24.1.3, SVG Export Plug-In . SVG Version: 6.00 Build 0)  -->
<svg version="1.1" id="Calque_1" xmlns="http://www.w3.org/2000/svg" xmlns:xlink="http://www.w3.org/1999/xlink" x="0px" y="0px"
	 viewBox="0 0 26 15" style="enable-background:new 0 0 26 15;" xml:space="preserve">
<style type="text/css">
	.st0{fill:#515151;}
</style>
<g>
	<path class="st0" d="M6.4,0.6C6.4,0.6,6.4,0.6,6.4,0.6L6,0.3L5.6,0.6c0,0,0,0,0,0l-5,5c-0.2,0.2-0.2,0.5,0,0.7
		c0.2,0.2,0.5,0.2,0.7,0l4.1-4.1V14c0,0.3,0.2,0.5,0.5,0.5s0.5-0.2,0.5-0.5V2.2l4.1,4.1c0.2,0.2,0.5,0.2,0.7,0
		c0.2-0.2,0.2-0.5,0-0.7L6.4,0.6z"/>
	<path class="st0" d="M25.4,8.6c-0.2-0.2-0.5-0.2-0.7,0l-4.1,4.1V1c0-0.3-0.2-0.5-0.5-0.5S19.5,0.7,19.5,1v11.8l-4.1-4.1
		c-0.2-0.2-0.5-0.2-0.7,0c-0.2,0.2-0.2,0.5,0,0.7l5,5c0,0,0,0,0,0l0.4,0.4l0.4-0.4c0,0,0,0,0,0l5-5C25.5,9.2,25.5,8.8,25.4,8.6z"/>
</g>
</svg>
