<?xml version="1.0" encoding="UTF-8" standalone="no"?>
<svg
   xmlns:dc="http://purl.org/dc/elements/1.1/"
   xmlns:cc="http://creativecommons.org/ns#"
   xmlns:rdf="http://www.w3.org/1999/02/22-rdf-syntax-ns#"
   xmlns:svg="http://www.w3.org/2000/svg"
   xmlns="http://www.w3.org/2000/svg"
   xmlns:sodipodi="http://sodipodi.sourceforge.net/DTD/sodipodi-0.dtd"
   xmlns:inkscape="http://www.inkscape.org/namespaces/inkscape"
   version="1.1"
   id="svg2"
   xml:space="preserve"
   width="558.26666"
   height="216.18668"
   viewBox="0 0 558.26666 216.18668"
   sodipodi:docname="Reevy.eps"><metadata
     id="metadata8"><rdf:RDF><cc:Work
         rdf:about=""><dc:format>image/svg+xml</dc:format><dc:type
           rdf:resource="http://purl.org/dc/dcmitype/StillImage" /></cc:Work></rdf:RDF></metadata><defs
     id="defs6" /><sodipodi:namedview
     pagecolor="#ffffff"
     bordercolor="#666666"
     borderopacity="1"
     objecttolerance="10"
     gridtolerance="10"
     guidetolerance="10"
     inkscape:pageopacity="0"
     inkscape:pageshadow="2"
     inkscape:window-width="640"
     inkscape:window-height="480"
     id="namedview4" /><g
     id="g10"
     inkscape:groupmode="layer"
     inkscape:label="ink_ext_XXXXXX"
     transform="matrix(1.3333333,0,0,-1.3333333,0,216.18667)"><g
       id="g12"
       transform="scale(0.1)"><path
         d="m 1010.95,1116.61 c -12.887,-31.09 -30.485,-59.14 -52.626,-83.12 -44.011,-47.685 -99.832,-84.826 -170.937,-97.927 L 561.129,893.891 c 21.133,171.989 16.68,345.069 -30.207,480.029 6.828,14.58 15.098,28.61 25.215,41.52 29.433,38.83 72.07,68.11 118.996,82.89 46.855,14.97 97.879,16.02 144.18,3.27 11.503,-3.44 22.664,-7.82 33.582,-11.86 10.625,-5.41 21.113,-10.43 30.929,-16.51 19.59,-12.41 37.598,-26.07 52.762,-42.33 30.969,-31.56 52.578,-68.08 67.674,-103.94 15.02,-36.01 23.41,-72.24 24.95,-107.97 1.39,-35.87 -5.76,-71.36 -18.26,-102.38 z m 294.39,149.02 c -17.06,74.29 -50.53,144.7 -99.73,200.28 -48.74,55.9 -110.78,97.16 -175.96,122.5 -32.537,12.9 -66.275,21.15 -99.478,26.94 -16.633,2.85 -33.652,3.36 -49.953,5.35 -16.602,0.61 -33.094,0.51 -49.266,0.74 -64.992,-2.21 -127.5,-14.65 -186.015,-36.87 -58.508,-22.2 -112.981,-53.13 -163.899,-91.95 -12.82,-9.78 -25.371,-20.19 -37.566,-31.23 -9.063,6.32 -18.489,12.18 -28.282,17.41 -42.48,22.83 -91.242,34.69 -139.171,34.57 -47.918,-0.1 -96.629,-12.01 -139.043,-34.89 C 94.5078,1455.75 58.3164,1422.23 34.1563,1382.12 10.2695,1341.87 -4.01953,1295.73 1,1251.19 c 7.63672,-67.81 41.6133,-102.55 61.75,-117.49 6.6094,-4.92 15.9766,-1.21 17.2852,6.92 2.7539,17.09 8.582,44.47 19.8711,66.5 11.0737,21.64 26.0157,41.17 44.2777,56.85 36.25,31.65 83.789,49.71 131.836,48.89 16.503,0.27 32.91,-1.84 48.859,-5.8 -1.164,-2.52 -2.305,-5.05 -3.527,-7.58 L 310.289,1275 301.41,1249.55 c -2.695,-8.59 -6.308,-17.21 -8.125,-26.04 l -5.672,-26.7 c -4.172,-19.79 -5.832,-32.06 -8.39,-46.25 -9.344,-55.88 -13.739,-111.77 -13.407,-167.658 1.707,-111.777 10.536,-223.558 29.032,-335.328 18.8,-111.773 43.918,-223.554 91.75,-335.336 1.609,-3.726 4.609,-6.898 8.621,-8.617 8.332,-3.562 17.969,0.289 21.535,8.617 35.625,83.242 58.621,166.473 75.82,249.703 11.649,43.231 23.985,92.278 36.336,146.985 9.817,43.465 18.274,87.996 25.117,132.883 L 669.418,710.176 c 32.277,-36.821 65.363,-73.086 99.219,-108.805 34.23,-35.473 68.906,-70.633 105.136,-104.723 35.899,-34.308 73.313,-67.57 111.926,-100 38.761,-32.339 78.591,-63.91 122.021,-93 3.6,-2.386 8.2,-3.378 12.74,-2.296 8.7,2.058 14.1,10.777 12.03,19.488 -12.02,50.859 -27.63,99.25 -44.32,146.871 -16.85,47.527 -34.88,94.23 -54.44,139.879 -10.13,24.156 -20.72,48.004 -31.55,71.683 4.76,1.829 9.56,3.497 14.26,5.481 72.96,30.273 138.63,78.73 189.18,139.746 12.61,15.234 23.86,31.656 35.09,47.883 10.01,17.086 20.25,34.066 28.6,51.957 16.62,35.84 30.42,73.027 38.08,111.55 16.74,76.81 14.96,155.43 -2.05,229.74"
         style="fill:#a5339f;fill-opacity:1;fill-rule:nonzero;stroke:none"
         id="path14" /><path
         d="m 1769.19,754.344 c -49.14,-18.567 -89.17,-25.821 -226.75,-55.305 0,0.891 0.5,15.988 0.71,22.356 2.8,90.683 37.83,149.722 103.45,156.148 2.26,0.227 4.58,0.379 6.93,0.48 59.18,2.297 107.12,-47.441 115.66,-123.679 z M 1945.05,463.73 c -64.38,-24.71 -129.78,-37.511 -188.31,-35.902 -108.31,3.012 -188.11,56.563 -205.51,172.942 79.94,-6.032 301.59,23.906 390.18,63.992 18.24,8.246 16.89,20.043 15.83,36.918 -4.61,73.687 -22.38,157.765 -88.6,213.062 -49.86,41.637 -127.6,70.352 -212.59,68.336 -137,3.164 -312.15,-63.926 -359.9,-219.594 -43.07,-140.343 -20.5,-282.496 93.22,-384.222 66.03,-57.66 170.1,-80.024 256.07,-77.981 55.51,-1.222 113.34,8.258 170.56,25.481 33.86,10.179 167.51,73.777 154.54,146.078 -8.49,-2.199 -16.99,-5.891 -25.49,-9.11"
         style="fill:#a5339f;fill-opacity:1;fill-rule:nonzero;stroke:none"
         id="path16" /><path
         d="m 2526.47,754.344 c -49.14,-18.567 -89.17,-25.821 -226.76,-55.305 0,0.891 0.51,15.988 0.7,22.356 2.82,90.683 37.85,149.722 103.45,156.148 2.28,0.227 4.59,0.379 6.95,0.48 59.17,2.297 107.11,-47.441 115.66,-123.679 z M 2702.33,463.73 c -64.39,-24.71 -129.8,-37.511 -188.31,-35.902 -108.32,3.012 -188.12,56.563 -205.52,172.942 79.94,-6.032 301.58,23.906 390.19,63.992 18.24,8.246 16.88,20.043 15.82,36.918 -4.6,73.687 -22.38,157.765 -88.6,213.062 -49.85,41.637 -127.6,70.352 -212.59,68.336 -137,3.164 -312.14,-63.926 -359.9,-219.594 -43.06,-140.343 -20.5,-282.496 93.23,-384.222 66.03,-57.66 170.09,-80.024 256.07,-77.981 55.51,-1.222 113.34,8.258 170.56,25.481 33.84,10.179 167.51,73.777 154.54,146.078 -8.5,-2.199 -17,-5.891 -25.49,-9.11"
         style="fill:#a5339f;fill-opacity:1;fill-rule:nonzero;stroke:none"
         id="path18" /><path
         d="m 3252.56,983.078 c -45.07,0 -82.14,-17.094 -105.49,-42.734 -22.31,-20.996 -38.28,-47.664 -42.37,-79.305 l -1.1,-8.469 c -0.17,-1.304 0.03,-2.672 0.66,-3.937 1.71,-3.481 5.98,-4.926 9.52,-3.235 12.43,5.926 25.52,10.043 38.82,12.684 1.63,-0.047 3,-0.184 4.8,-0.18 61.9,0.192 75.51,-110.589 75.51,-167.711 0,-55.906 -18.56,-230.921 -107.71,-230.921 -7.32,0 -13.44,1.179 -20.72,2.378 -0.19,0.032 -0.34,0.161 -0.36,0.352 -1.73,14.57 -67.55,551.8 -324.08,512.699 -4.18,-0.633 -6.96,-4.59 -6.07,-8.652 23.62,-108.18 119.45,-591.418 129.93,-644.266 0.57,-2.859 2.81,-5.09 5.71,-5.679 45.53,-9.153 92.17,-14.821 138.83,-14.821 273.62,0 374.97,244.27 374.97,472.77 0,103.297 -51.98,209.027 -170.85,209.027"
         style="fill:#a5339f;fill-opacity:1;fill-rule:nonzero;stroke:none"
         id="path20" /><path
         d="m 3986.19,981.711 c -10.15,0.855 -20.74,-0.551 -29.41,-2.398 -9.35,-1.993 -13.72,-10.532 -9.89,-18.129 31.11,-61.739 40.41,-167.465 36.39,-275.383 -3.07,-35.293 -10.18,-76.27 -26.38,-102.903 -30.18,-49.589 -72.55,-83.66 -120.56,-83.66 -27.05,0 -48.46,3.114 -56.72,45.442 -19.33,99.078 0,298.058 0,298.058 7.25,118.418 -92.69,134.856 -157.94,138.992 -23.17,1.469 -40.51,-0.953 -58.21,-6.925 -6.86,-2.321 -10.62,-7.078 -11.85,-18.746 -52.14,-495.75 9.19,-582.278 53.48,-620.43 27.06,-23.348 63.97,-35.668 98.41,-35.668 102.11,0 175.9,59.051 252.18,141.48 l 4.46,3.848 c -21.43,-103.43 -86.54,-197.668 -174.76,-258.641 -124.99,-86.386 -224.35,-79.957 -316.6,-72.75 -10.5,0.832 -17.52,-9.078 -11.68,-16.5464 35.99,-46.0821 135.93,-131.8711 388.8,-82.5118 233.87,45.6602 329.38,262.3792 336.62,469.2892 7.25,206.914 32.06,478.344 -196.34,497.582"
         style="fill:#a5339f;fill-opacity:1;fill-rule:nonzero;stroke:none"
         id="path22" /></g></g></svg>
